<!DOCTYPE svg PUBLIC "-//W3C//DTD SVG 1.1//EN" "http://www.w3.org/Graphics/SVG/1.1/DTD/svg11.dtd">
<!-- Uploaded to: SVG Repo, www.svgrepo.com, Transformed by: SVG Repo Mixer Tools -->
<svg height="800px" width="800px" version="1.1" id="Layer_1" xmlns="http://www.w3.org/2000/svg" xmlns:xlink="http://www.w3.org/1999/xlink" viewBox="0 0 508 508" xml:space="preserve" fill="#000000">
<g id="SVGRepo_bgCarrier" stroke-width="0"/>
<g id="SVGRepo_tracerCarrier" stroke-linecap="round" stroke-linejoin="round"/>
<g id="SVGRepo_iconCarrier"> <circle style="fill:#84DBFF;" cx="254" cy="254" r="254"/> <g> <path style="fill:#E6E9EE;" d="M314.8,193.2c-19.1-19.1-19.1-50.3,0-69.4l20.7-20.7c19.1-19.1,50.3-19.1,69.4,0s19.1,50.3,0,69.4 l-20.7,20.7C365.1,212.4,333.9,212.4,314.8,193.2z M385.2,122.8c-8.3-8.3-21.8-8.3-30.1,0l-20.7,20.7c-8.3,8.3-8.3,21.8,0,30.1 s21.8,8.3,30.1,0l20.7-20.7C393.5,144.6,393.5,131.1,385.2,122.8z"/> <path style="fill:#E6E9EE;" d="M103.1,404.9c-19.1-19.1-19.1-50.3,0-69.4l20.7-20.7c19.1-19.1,50.3-19.1,69.4,0s19.1,50.3,0,69.4 l-20.7,20.7C153.4,424,122.3,424,103.1,404.9z M173.6,334.4c-8.3-8.3-21.8-8.3-30.1,0l-20.7,20.7c-8.3,8.3-8.3,21.8,0,30.1 c8.3,8.3,21.8,8.3,30.1,0l20.7-20.7C181.9,356.2,181.9,342.7,173.6,334.4z"/> <path style="fill:#E6E9EE;" d="M208.9,299.1c-19.1-19.1-19.1-50.3,0-69.4l20.7-20.7c19.1-19.1,50.3-19.1,69.4,0s19.1,50.3,0,69.4 l-20.7,20.7C259.2,318.2,228.1,318.2,208.9,299.1z M279.4,228.6c-8.3-8.3-21.8-8.3-30.1,0l-20.7,20.7c-8.3,8.3-8.3,21.8,0,30.1 s21.8,8.3,30.1,0l20.7-20.7C287.7,250.4,287.7,236.9,279.4,228.6z"/> </g> <g> <path style="fill:#FFFFFF;" d="M261.8,246.2c-5.4-5.4-5.4-14.2,0-19.7l70.4-70.4c5.4-5.4,14.2-5.4,19.7,0c5.4,5.4,5.4,14.2,0,19.7 l-70.4,70.4C276.1,251.6,267.3,251.6,261.8,246.2z"/> <path style="fill:#FFFFFF;" d="M443.2,84.5l-55.8,55.8c-5.4,5.4-14.2,5.4-19.7,0c-5.4-5.4-5.4-14.2,0-19.7l55.9-55.8 C430.4,71,437,77.6,443.2,84.5z"/> <path style="fill:#FFFFFF;" d="M140.4,387.4l-55.9,55.8c-6.9-6.2-13.5-12.8-19.6-19.7l55.8-55.8c5.4-5.4,14.2-5.4,19.7,0 C145.8,373.1,145.8,381.9,140.4,387.4z"/> <path style="fill:#FFFFFF;" d="M156,352c-5.4-5.4-5.4-14.2,0-19.7l70.4-70.4c5.4-5.4,14.2-5.4,19.7,0c5.4,5.4,5.4,14.2,0,19.7 L175.7,352C170.3,357.4,161.5,357.4,156,352z"/> </g> </g>
</svg>